<?xml version="1.0" standalone="no"?><!DOCTYPE svg PUBLIC "-//W3C//DTD SVG 1.1//EN" "http://www.w3.org/Graphics/SVG/1.1/DTD/svg11.dtd"><svg t="1658633929699" class="icon" viewBox="0 0 1024 1024" version="1.1" xmlns="http://www.w3.org/2000/svg" p-id="12206" xmlns:xlink="http://www.w3.org/1999/xlink" width="200" height="200"><defs><style type="text/css">@font-face { font-family: "feedback-iconfont"; src: url("//at.alicdn.com/t/font_1031158_u69w8yhxdu.woff2?t=1630033759944") format("woff2"), url("//at.alicdn.com/t/font_1031158_u69w8yhxdu.woff?t=1630033759944") format("woff"), url("//at.alicdn.com/t/font_1031158_u69w8yhxdu.ttf?t=1630033759944") format("truetype"); }
</style></defs><path d="M810.678 473.54h42.624v364.112h-42.624z" fill="#D770AD" p-id="12207"></path><path d="M810.678 597.566V384.214l213.304 106.668zM786.458 771.124c-18.716 0-35.624 7.686-47.746 20.06-12.156-12.376-29.032-20.06-47.782-20.06-36.906 0-66.84 29.936-66.84 66.872 0 76.404 114.622 143.246 114.622 143.246s114.59-66.842 114.59-143.246c0-36.936-29.906-66.872-66.844-66.872z" fill="#EC87C0" p-id="12208"></path><path d="M186.59 214.69h42.654V540.1H186.59z" fill="#967ADC" p-id="12209"></path><path d="M162.386 472.602c-18.702 0-35.624 7.686-47.748 20.078-12.14-12.39-29.046-20.078-47.764-20.078-36.92 0-66.858 29.936-66.858 66.856 0 76.42 114.622 143.292 114.622 143.292s114.606-66.874 114.606-143.292c0-36.918-29.936-66.856-66.858-66.856z" fill="#AC92EB" p-id="12210"></path><path d="M613.248 214.674h42.652v281.6h-42.652z" fill="#967ADC" p-id="12211"></path><path d="M589.06 429.948c-18.75 0-35.624 7.688-47.782 20.078-12.124-12.39-29.044-20.078-47.748-20.078-36.936 0-66.858 29.938-66.858 66.858 0 76.388 114.604 143.262 114.604 143.262s114.622-66.874 114.622-143.262c0.002-36.922-29.934-66.858-66.838-66.858zM186.59 298.75l469.31-84.076V42.758L186.59 126.834z" fill="#AC92EB" p-id="12212"></path></svg>