<?xml version="1.0" standalone="no"?><!DOCTYPE svg PUBLIC "-//W3C//DTD SVG 1.1//EN" "http://www.w3.org/Graphics/SVG/1.1/DTD/svg11.dtd"><svg t="1658633936836" class="icon" viewBox="0 0 1024 1024" version="1.1" xmlns="http://www.w3.org/2000/svg" p-id="12497" xmlns:xlink="http://www.w3.org/1999/xlink" width="200" height="200"><defs><style type="text/css">@font-face { font-family: "feedback-iconfont"; src: url("//at.alicdn.com/t/font_1031158_u69w8yhxdu.woff2?t=1630033759944") format("woff2"), url("//at.alicdn.com/t/font_1031158_u69w8yhxdu.woff?t=1630033759944") format("woff"), url("//at.alicdn.com/t/font_1031158_u69w8yhxdu.ttf?t=1630033759944") format("truetype"); }
</style></defs><path d="M188.45696 34.79552c75.69408-22.46656 149.37088 47.91296 221.04064 211.1488a332.1856 332.1856 0 0 1 101.84704-15.88224h11.12064c32.768 0 64.43008 4.74112 94.34112 13.568 71.34208-161.5872 144.6912-231.19872 220.01664-208.83456-1.96608 3.13344 60.07808 293.35552-21.56544 369.84832a330.7008 330.7008 0 0 1 39.05536 134.37952C925.31712 581.8368 972.8 659.70176 972.8 748.65664 972.8 883.7632 863.2832 993.28 728.17664 993.28H295.8336C160.7168 993.28 51.2 883.7632 51.2 748.65664c0-93.184 52.10112-174.19264 128.75776-215.49056 3.90144-44.25728 16.46592-86.016 35.98336-123.58656-90.4704-67.84-25.46688-371.56864-27.48416-374.784z" fill="#FDF6EC" p-id="12498"></path><path d="M368.00512 573.56288c3.00032 4.88448-86.51776 173.4656-312.6784 220.0576A245.504 245.504 0 0 1 51.2 748.66688c0-93.184 52.10112-174.20288 128.75776-215.5008a331.4688 331.4688 0 0 1 88.60672-197.87776c70.51264 43.01824 103.65952 122.44992 99.44064 238.27456z m486.30784-34.53952C925.31712 581.8368 972.8 659.70176 972.8 748.65664c0 12.57472-0.95232 24.9344-2.77504 36.99712C737.024 741.8368 645.0176 568.7296 648.05888 563.77344c-4.31104-118.5792 30.52544-198.99392 104.52992-241.27488 57.87648 55.4496 95.744 131.584 101.72416 216.5248z" fill="#FDE6CA" opacity=".474" p-id="12499"></path><path d="M294.71744 625.3568c37.21216 7.2192 73.23648-17.02912 80.46592-54.1696 7.23968-37.13024-17.05984-73.08288-54.272-80.30208-37.20192-7.2192-63.39584 127.25248-26.19392 134.47168z m428.41088 0c-37.20192 7.2192-73.22624-17.02912-80.45568-54.1696-7.23968-37.13024 17.05984-73.08288 54.272-80.30208 37.20192-7.2192 63.39584 127.25248 26.18368 134.47168z" fill="#312B33" p-id="12500"></path><path d="M344.2688 311.41888C319.25248 103.424 267.68384 11.01824 189.58336 34.2016c2.07872 3.30752-67.39968 327.53664 37.04832 380.78464-1.7408 5.15072 37.4784-29.36832 117.63712-103.5776z m344.20736 0C713.49248 103.424 765.06112 11.01824 843.1616 34.2016c-2.07872 3.30752 67.39968 327.53664-37.04832 380.78464 1.7408 5.15072-37.4784-29.36832-117.63712-103.5776z" fill="#E5D7D4" opacity=".601" p-id="12501"></path><path d="M427.02848 776.83712l1.20832 0.90112 75.45856 62.32064 88.1664-58.73664a14.72512 14.72512 0 0 1 19.54816 2.9184l0.83968 1.14688c4.2496 6.3488 2.88768 14.78656-2.9184 19.5072l-1.14688 0.84992L512 869.82656v22.016c30.63808 0.89088 60.83584 11.44832 90.27584 31.70304 6.68672 4.608 8.36608 13.74208 3.75808 20.40832a14.72512 14.72512 0 0 1-20.45952 3.75808c-51.53792-35.46112-103.43424-35.46112-158.72 0.23552-6.8096 4.4032-15.91296 2.4576-20.3264-4.34176a14.66368 14.66368 0 0 1 4.352-20.29568c24.00256-15.50336 47.95392-25.2928 71.72096-29.35808v-33.2288l-73.1136-60.3648a14.65344 14.65344 0 0 1-1.9456-20.66432 14.72512 14.72512 0 0 1 19.49696-2.85696z" fill="#CE7D8A" p-id="12502"></path><path d="M742.4 735.232c51.43552 0 93.14304-17.52064 93.14304-39.13728 0-21.61664-41.70752-39.14752-93.14304-39.14752s-93.14304 17.53088-93.14304 39.14752c0 21.6064 41.70752 39.13728 93.14304 39.13728z m-460.8 0c51.43552 0 93.14304-17.52064 93.14304-39.13728 0-21.61664-41.70752-39.14752-93.14304-39.14752s-93.14304 17.53088-93.14304 39.14752c0 21.6064 41.70752 39.13728 93.14304 39.13728z" fill="#D36F3E" fill-opacity=".3" p-id="12503"></path></svg>