<?xml version="1.0" standalone="no"?><!DOCTYPE svg PUBLIC "-//W3C//DTD SVG 1.1//EN" "http://www.w3.org/Graphics/SVG/1.1/DTD/svg11.dtd"><svg t="1658633933637" class="icon" viewBox="0 0 1024 1024" version="1.1" xmlns="http://www.w3.org/2000/svg" p-id="12353" xmlns:xlink="http://www.w3.org/1999/xlink" width="200" height="200"><defs><style type="text/css">@font-face { font-family: "feedback-iconfont"; src: url("//at.alicdn.com/t/font_1031158_u69w8yhxdu.woff2?t=1630033759944") format("woff2"), url("//at.alicdn.com/t/font_1031158_u69w8yhxdu.woff?t=1630033759944") format("woff"), url("//at.alicdn.com/t/font_1031158_u69w8yhxdu.ttf?t=1630033759944") format("truetype"); }
</style></defs><path d="M29.6384 0m68.266667 0l136.533333 0q68.266667 0 68.266667 68.266667l0 887.466666q0 68.266667-68.266667 68.266667l-136.533333 0q-68.266667 0-68.266667-68.266667l0-887.466666q0-68.266667 68.266667-68.266667Z" fill="#AFE1FA" p-id="12354"></path><path d="M370.971733 477.866667m68.266667 0l136.533333 0q68.266667 0 68.266667 68.266666l0 409.6q0 68.266667-68.266667 68.266667l-136.533333 0q-68.266667 0-68.266667-68.266667l0-409.6q0-68.266667 68.266667-68.266666Z" fill="#F5834A" p-id="12355"></path><path d="M712.305067 324.266667m68.266666 0l136.533334 0q68.266667 0 68.266666 68.266666l0 563.2q0 68.266667-68.266666 68.266667l-136.533334 0q-68.266667 0-68.266666-68.266667l0-563.2q0-68.266667 68.266666-68.266666Z" fill="#AFE1FA" p-id="12356"></path></svg>