<?xml version="1.0" standalone="no"?><!DOCTYPE svg PUBLIC "-//W3C//DTD SVG 1.1//EN" "http://www.w3.org/Graphics/SVG/1.1/DTD/svg11.dtd"><svg t="1658633912398" class="icon" viewBox="0 0 1024 1024" version="1.1" xmlns="http://www.w3.org/2000/svg" p-id="11845" xmlns:xlink="http://www.w3.org/1999/xlink" width="200" height="200"><defs><style type="text/css">@font-face { font-family: "feedback-iconfont"; src: url("//at.alicdn.com/t/font_1031158_u69w8yhxdu.woff2?t=1630033759944") format("woff2"), url("//at.alicdn.com/t/font_1031158_u69w8yhxdu.woff?t=1630033759944") format("woff"), url("//at.alicdn.com/t/font_1031158_u69w8yhxdu.ttf?t=1630033759944") format("truetype"); }
</style></defs><path d="M0 194.56m81.92 0l860.16 0q81.92 0 81.92 81.92l0 573.44q0 81.92-81.92 81.92l-860.16 0q-81.92 0-81.92-81.92l0-573.44q0-81.92 81.92-81.92Z" fill="#69C0FF" p-id="11846"></path><path d="M143.36 921.6h122.88v30.72a40.96 40.96 0 0 1-40.96 40.96h-40.96a40.96 40.96 0 0 1-40.96-40.96v-30.72zM757.76 921.6h122.88v30.72a40.96 40.96 0 0 1-40.96 40.96h-40.96a40.96 40.96 0 0 1-40.96-40.96v-30.72z" fill="#40A9FF" p-id="11847"></path><path d="M92.16 307.2m81.92 0l450.56 0q81.92 0 81.92 81.92l0 348.16q0 81.92-81.92 81.92l-450.56 0q-81.92 0-81.92-81.92l0-348.16q0-81.92 81.92-81.92Z" fill="#91D5FF" p-id="11848"></path><path d="M865.28 363.52m-46.08 0a46.08 46.08 0 1 0 92.16 0 46.08 46.08 0 1 0-92.16 0Z" fill="#40A9FF" p-id="11849"></path><path d="M865.28 517.12m-46.08 0a46.08 46.08 0 1 0 92.16 0 46.08 46.08 0 1 0-92.16 0Z" fill="#40A9FF" p-id="11850"></path></svg>